<svg width="194" height="255" viewBox="0 0 194 255" fill="none" xmlns="http://www.w3.org/2000/svg">
<path fill-rule="evenodd" clip-rule="evenodd" d="M51.1598 187.289C50.0499 189.249 49.7867 191.009 49.9014 192.834C50.1048 196.007 51.2322 197.266 54.6088 197.947C58.1884 198.667 61.7853 199.294 65.3639 199.987C69.5307 200.791 73.6917 201.628 77.8451 202.446C78.754 201.194 79.4643 200.015 80.3967 199.005C81.4817 197.813 82.6209 196.586 83.9817 195.686C87.7933 193.171 91.6977 193.322 95.5239 195.863C97.5797 197.226 98.9656 199.04 99.9186 201.15C100.246 201.873 100.43 202.641 100.723 203.542C101.408 203.636 102.111 203.84 102.798 203.81C108.901 203.529 115.005 203.248 121.098 202.876C122.672 202.782 124.243 202.457 125.786 202.121C127.075 201.84 128.396 201.511 129.429 200.426C129.694 198.541 128.749 196.784 128.422 195.045C127.463 194.187 126.458 194.596 125.522 194.642C122.518 194.774 119.693 194.316 117.142 192.734C113.087 190.222 111.998 185.218 114.781 181.474C116.534 179.111 118.821 177.568 122.132 177.825C122.711 177.87 123.305 177.79 123.888 177.77C123.821 175.044 121.428 165.588 119.377 159.844C118.529 159.664 117.59 159.455 116.658 159.258C114.499 158.796 112.43 158.135 110.616 156.933C108.297 155.402 106.994 153.396 106.961 150.669C106.92 147.385 107.64 144.364 110.306 142.034C111.339 141.125 112.641 140.489 114.016 139.608C113.818 136.73 113.071 133.852 111.658 131.016C108.73 130.791 105.981 131.367 103.102 131.488C102.497 132.349 101.919 133.195 101.306 134.017C100.402 135.229 99.3904 136.34 97.9609 137.085C95.1632 138.541 92.2532 138.408 89.7483 136.588C88.0951 135.387 86.7517 133.939 86.0923 132.048C85.8726 131.42 85.6046 130.8 85.3721 130.198C82.6535 129.291 80.0408 128.425 77.3223 127.518C76.0333 129.17 75.7417 131.088 74.5782 132.749C75.4182 133.25 76.0225 133.589 76.6005 133.969C78.9978 135.53 80.5088 137.694 81.3053 140.236C82.8431 145.152 79.2738 150.772 73.9098 152.174C71.9155 152.697 70.0342 152.396 68.1571 151.852C67.2432 151.59 66.3919 151.154 65.3464 150.725C63.3662 153.687 62.476 156.97 61.1758 160.078C59.8633 163.226 58.6567 166.416 57.3445 169.747C57.8389 169.946 58.2308 170.188 58.6506 170.258C63.1702 171.024 65.0838 174.045 66.0991 177.714C66.8864 180.545 66.1476 183.095 63.6257 185.02C62.4996 185.879 61.3604 186.759 60.094 187.413C57.7523 188.63 55.2711 188.967 52.72 187.902C52.2891 187.727 51.8518 187.566 51.1598 187.289ZM80.0069 169.624C79.8168 165.218 82.1249 161.596 86.1451 159.605C89.5655 157.904 93.4761 158.56 96.2108 161.087C99.9125 164.51 99.8487 171.43 97.7203 174.331C96.3626 176.175 94.7818 177.654 92.226 177.862C88.3404 178.183 85.0093 177.074 82.3056 174.454C80.8092 173.006 80.1271 171.24 80.0069 169.624Z" fill="#6CDCF2"/>
<path fill-rule="evenodd" clip-rule="evenodd" d="M109.5 73.7573C104.341 72.1359 99.3473 69.5841 93.3568 70.9623C92.8194 72.2926 92.349 73.5615 91.8009 74.8004C90.9652 76.6659 90.1442 78.5504 89.1815 80.3679C88.1028 82.4123 86.5888 84.1705 84.5362 85.4952C83.4388 86.2026 82.3349 86.9234 81.2884 87.6881C73.685 93.2147 61.1662 92.0755 53.8909 85.9977C52.64 84.9533 51.6289 83.6513 50.5041 82.4582C49.5998 82.6081 49.8758 83.2541 49.9165 83.751C50.3842 89.1899 51.7801 94.3798 54.4705 99.2749C57.7904 105.315 61.4006 111.142 66.5391 116.088C74.1348 123.4 83.392 127.428 94.3197 128.224C106.648 129.114 118.366 126.904 129.595 122.207C137.427 118.928 144.707 114.862 151.328 109.783C159.236 103.722 164.693 96.1329 168.161 87.2703C168.318 86.8647 168.321 86.4123 168.419 85.9039C165.984 85.3209 163.641 84.7608 161.059 84.1436C160.787 84.6384 160.42 85.1825 160.172 85.7682C156.978 93.2902 151.132 98.4663 143.385 101.972C126.053 107.841 112.18 97.1567 110.167 85.0578C109.609 81.7006 109.115 78.3804 109.681 74.9902C109.717 74.6742 109.585 74.3313 109.5 73.7573ZM89.3749 92.3276C90.4634 92.4401 92.2711 92.6387 94.085 92.8174C98.4388 93.2607 102.781 93.7569 107.144 94.0818C108.385 94.1758 109.205 94.5272 109.813 95.4828C110.443 96.4769 110.853 97.5116 110.774 98.6684C110.542 102.067 109.832 105.337 107.865 108.298C105.807 111.394 102.935 113.081 98.9289 113.334C93.1621 113.701 88.3087 112.233 86.7188 105.319C86.0374 102.353 85.4597 99.3766 84.799 96.4099C84.061 93.0721 84.5584 92.4776 88.2716 92.3665C88.3895 92.3623 88.5145 92.3579 89.3749 92.3276Z" fill="#FFEFF4"/>
<path fill-rule="evenodd" clip-rule="evenodd" d="M49.5052 57.8138C46.3953 61.5428 46.6538 65.5728 47.5582 69.7702C49.2456 77.5595 54.6319 82.6219 61.7788 86.3568C63.8866 87.4563 66.2449 88.0421 68.7787 87.979C73.1938 87.8694 77.1885 86.8041 80.5827 84.1011C80.953 83.8061 81.3011 83.4725 81.716 83.2481C84.7511 81.6462 86.348 79.0064 87.6037 76.1755C88.9423 73.158 90.077 70.0821 90.6773 66.848C91.2994 63.4624 91.0697 60.1526 90.1107 56.8489C89.4897 54.7004 88.2391 52.9675 86.4787 51.5214C84.2514 49.6918 81.6011 48.5787 78.8018 47.7396C77.6625 47.3995 76.6356 47.6126 75.8223 48.474C75.0224 49.3218 74.1155 50.1013 73.4294 51.0172C69.9345 55.7171 64.7903 57.4065 58.959 57.7234C55.9151 57.8896 52.8676 57.7937 49.5052 57.8138ZM67.5499 66.4629C67.4729 65.5804 67.8093 64.4342 68.5582 63.3521C69.839 61.4972 71.703 61.0185 73.9195 61.3601C75.6812 61.6258 76.651 62.7654 77.0259 65.0143C77.1356 65.6727 77.1839 66.3595 77.0919 67.0119C76.7495 69.3976 74.6578 70.9597 72.0144 70.8889C69.5447 70.8186 67.7344 69.1644 67.5499 66.4629Z" fill="#FFEFF4"/>
<path fill-rule="evenodd" clip-rule="evenodd" d="M132.446 57.2654C131.041 57.0592 129.918 57.4529 128.757 57.7889C121.166 59.9775 112.126 69.2069 112.875 79.2586C113.025 81.2729 113.308 83.2891 113.686 85.2757C115.29 93.5924 124.351 102.092 137.49 100.141C140.55 99.6858 143.366 98.6883 145.927 97.0506C149.484 94.7681 152.471 91.9744 154.861 88.6577C156.52 86.3502 156.897 85.1829 157.069 82.5343C155.279 81.5614 153.391 80.5656 151.529 79.5231C145.132 75.952 140.022 71.2011 136.342 65.1999C135.265 63.4478 134.432 61.5625 133.518 59.7259C133.118 58.9335 132.806 58.0986 132.446 57.2654ZM124.44 78.2546C124.342 75.8188 127.029 73.1341 129.625 73.0689C132.478 73.0012 135.392 75.659 135.56 78.4857C135.711 81.0246 133.272 83.1234 130.065 83.2036C126.851 83.2906 124.561 81.2796 124.44 78.2546Z" fill="#FFEFF4"/>
<path fill-rule="evenodd" clip-rule="evenodd" d="M131.247 46.3833C130.09 46.1224 129.032 45.8909 127.972 45.6462C123.104 44.4998 119.471 41.9262 117.015 37.849C114.782 34.1378 113.76 30.1216 113.046 25.9961C112.863 24.9141 112.633 23.8468 112.439 22.8242C111.15 22.7385 111.144 23.637 110.866 24.1451C109.01 27.5939 106.668 30.732 104.114 33.7661C99.9543 38.6927 94.6237 42.1458 88.4382 44.5538C87.22 45.0229 85.9947 45.4857 84.3999 46.0927C85.3578 46.7606 85.9605 47.2377 86.6226 47.634C90.7318 50.1252 93.1019 53.6152 93.9544 58.0768C94.5084 60.9817 94.6103 63.8763 94.2506 66.8724C97.0899 67.3232 99.8607 67.6255 102.546 68.2194C105.252 68.8191 107.88 69.7166 110.685 70.5292C114.934 62.0915 121.144 55.7813 131.549 53.7493C131.447 51.3727 131.354 49.0548 131.247 46.3833Z" fill="#FFEFF4"/>
<path fill-rule="evenodd" clip-rule="evenodd" d="M9.8051 171.087C12.0137 171.232 13.4561 171.332 14.898 171.419C15.7758 171.474 16.6281 171.588 17.0037 172.466C17.3261 173.229 16.9748 174.002 15.9278 174.753C15.3539 175.174 14.6854 175.486 14.1332 175.925C13.5876 176.357 13.0372 176.842 12.6706 177.406C12.4809 177.701 12.5795 178.255 12.7532 178.603C12.8438 178.783 13.4333 178.926 13.7007 178.838C14.6126 178.531 15.4862 178.133 16.3597 177.735C17.124 177.386 17.8335 176.883 18.6309 176.665C19.1258 176.529 19.9152 176.632 20.2678 176.935C20.6275 177.243 20.8162 177.965 20.7099 178.434C20.5152 179.3 20.0123 180.104 19.72 180.96C19.4907 181.657 20.0648 182.286 20.9068 182.315C21.9297 182.351 22.8831 182.213 23.2288 181.125C23.5557 180.091 23.9891 179.112 25.4231 179.35C26.6122 179.544 26.6782 180.499 26.8955 181.416C27.3116 183.132 29.5079 184.012 31.1419 183.168C31.5231 182.971 31.867 182.532 31.9906 182.148C32.6375 180.079 32.9836 177.962 32.6477 175.817C32.283 173.476 31.8012 171.158 31.3949 168.819C31.2519 168.024 30.8935 167.4 30.3253 166.745C28.9843 165.186 27.4861 163.691 27.2121 161.53C27.1333 160.95 26.5308 160.308 25.9864 159.901C22.7902 157.476 19.1717 155.958 14.9603 155.949C12.8477 155.945 12.1264 156.849 12.4249 158.753C12.6039 159.927 13.1433 160.905 14.1452 161.63C14.911 162.187 15.7363 162.669 16.5288 163.198C17.2498 163.678 17.8635 164.253 17.5663 165.162C17.3242 165.885 16.6544 166.164 15.8724 166.244C12.9591 166.55 11.6277 168.531 9.8051 171.087Z" fill="#FFEFF4"/>
<path fill-rule="evenodd" clip-rule="evenodd" d="M158.532 108.357C160.606 109.136 162.458 109.038 164.25 109.027C167.314 109.005 170.332 108.551 173.257 107.674C175.977 106.857 178.398 105.539 180.343 103.608C183.056 100.909 184.537 97.8148 183.483 94.0423C183.054 92.523 182.844 90.924 182.203 89.4909C181.661 88.2773 180.768 87.1416 179.811 86.1459C178.375 84.6555 176.428 84.4422 174.41 84.8936C173.866 85.0176 173.283 85.3792 172.938 85.7847C172.347 86.4809 171.795 87.2544 171.466 88.0791C168.642 95.1225 164.794 101.599 159.277 107.183C159.057 107.414 158.924 107.739 158.532 108.357Z" fill="#FFEFF4"/>
<path fill-rule="evenodd" clip-rule="evenodd" d="M143.932 191.882C145.194 191.471 145.311 190.568 145.533 189.688C146.019 187.77 146.577 187.127 147.511 187.376C149.091 187.793 148.843 189.041 148.915 190.146C148.983 191.154 149.023 192.175 149.216 193.165C149.32 193.679 149.735 194.143 149.967 194.561C151.471 194.817 152.168 193.999 152.688 193.102C153.201 192.218 153.446 191.2 153.973 190.322C154.228 189.9 154.87 189.451 155.349 189.447C155.835 189.437 156.47 189.847 156.806 190.248C157.243 190.764 157.35 191.528 157.794 192.037C158.471 192.8 159.264 193.499 160.114 194.099C160.415 194.311 161.08 194.268 161.485 194.129C162.198 193.888 162.205 193.199 162.011 192.694C161.399 191.116 160.704 189.56 159.989 188.018C159.609 187.193 159.044 186.439 158.725 185.598C158.338 184.601 159.424 183.429 160.538 183.671C161.59 183.903 162.614 184.313 163.616 184.704C164.852 185.192 166.017 185.826 167.284 186.227C168.023 186.463 168.881 186.374 169.94 186.448C169.343 184.214 168.09 182.756 166.384 181.63C165.834 181.269 165.039 181.185 164.339 181.052C163.631 180.913 162.882 180.933 162.187 180.761C161.415 180.572 160.929 180.058 161.022 179.274C161.116 178.491 161.726 178.096 162.493 177.99C163.212 177.892 163.957 177.925 164.686 177.913C167.81 177.842 169.938 176.311 171.447 173.924C172.087 172.905 171.519 171.908 170.225 171.678C170.106 171.656 169.986 171.628 169.861 171.626C163.624 171.531 157.755 172.623 152.466 175.91C149.855 177.53 147.966 179.636 146.545 182.165C145.533 183.964 144.535 185.763 143.53 187.562C142.933 188.619 142.901 189.735 143.224 190.845C143.329 191.228 143.697 191.556 143.932 191.882Z" fill="#FFEFF4"/>
<path fill-rule="evenodd" clip-rule="evenodd" d="M46.5395 85.6468C46.2181 82.301 45.9352 79.0521 45.5764 75.8124C45.49 75.0418 45.1954 74.2784 44.9085 73.5345C43.0264 68.6961 43.0825 63.842 44.6517 58.9476C44.8933 58.2113 45.0772 57.4245 45.0677 56.6642C45.0457 54.3766 43.7607 53.176 41.2818 53.047C39.2344 52.9355 37.437 53.5168 35.911 54.8033C33.1211 57.1506 31.7226 60.0588 31.9169 63.5271C32.1086 66.93 32.8792 70.2142 34.771 73.2097C37.5464 77.6231 40.9359 81.5822 44.8526 85.1686C45.1121 85.4021 45.4387 85.5741 45.7513 85.7467C45.8223 85.7836 45.9656 85.7195 46.5395 85.6468Z" fill="#FFEFF4"/>
<path fill-rule="evenodd" clip-rule="evenodd" d="M154.962 111.02C157.007 111.414 158.56 111.674 160.088 112.007C161.638 112.352 163.199 112.802 164.093 114.135C166.737 118.048 169.416 121.953 171.876 125.965C172.82 127.498 173.468 129.272 173.808 131.011C174.532 134.69 172.874 136.316 168.785 136.066C167.601 135.997 166.384 135.633 165.302 135.166C163.987 134.596 162.794 133.786 161.556 133.062C160.73 132.58 159.971 131.997 159.12 131.568C157.403 130.697 156.27 131.196 155.956 132.919C155.797 133.809 155.82 134.733 155.57 135.594C155.093 137.218 154.652 138.879 153.864 140.375C151.992 143.962 150.612 142.988 148.747 141.185C147.822 140.293 146.889 139.375 145.824 138.639C144.352 137.616 142.803 137.814 141.598 139.122C140.892 139.888 140.33 140.774 139.731 141.621C139.206 142.38 138.758 143.183 138.211 143.93C137.064 145.479 135.431 146.159 133.45 145.816C130.05 145.234 127.202 143.865 125.838 140.694C125.432 139.757 125.102 138.786 124.833 137.805C124.131 135.187 123.469 132.548 122.829 129.915C122.704 129.402 122.773 128.855 122.744 128.135C134.626 124.129 145.571 118.767 154.962 111.02Z" fill="#F3C888"/>
<path fill-rule="evenodd" clip-rule="evenodd" d="M30.2758 109.544C30.3614 108.557 30.5906 107.513 31.0629 106.638C31.7099 105.441 32.4744 104.228 33.4866 103.3C36.5098 100.531 39.6411 97.8574 42.823 95.234C44.1684 94.1243 45.7087 93.198 47.7626 92.6011C48.6654 94.6741 49.3767 96.4719 50.2173 98.2061C53.8812 105.722 58.2646 112.814 64.563 118.788C66.7589 120.874 66.8397 122.026 65.2419 124.469C63.009 127.885 59.7526 130.209 55.6662 131.416C51.4629 132.652 48.5272 131.352 46.9455 127.598C46.1938 125.828 45.0056 125.136 43.0452 125.29C42.4426 125.337 41.824 125.333 41.2176 125.289C38.5207 125.095 37.4539 123.789 38.1877 121.461C38.4595 120.612 38.9416 119.809 39.3892 119.013C39.8369 118.217 40.4259 117.481 40.8314 116.673C41.4234 115.492 40.6955 114.318 39.3224 114.215C38.4719 114.147 37.6149 114.262 36.7649 114.207C35.6782 114.14 34.5579 114.101 33.5183 113.823C31.1649 113.185 30.0865 111.76 30.2758 109.544Z" fill="#F3C888"/>
<path fill-rule="evenodd" clip-rule="evenodd" d="M52.9233 48.2375C52.4317 48.6286 51.8246 48.9123 50.7867 49.5455C51.8277 45.5156 53.019 42.1165 54.5974 38.8414C58.4993 30.7634 64.4321 24.122 71.4351 18.1772C76.0992 14.2164 81.3609 11.2968 87.3056 9.29728C92.0573 7.70046 96.9555 6.81319 101.931 6.29695C106.581 5.81183 111.231 6.00867 115.758 7.14091C120.938 8.43376 126.118 9.72007 131.137 11.5104C137.848 13.9033 143.84 17.2396 148.674 22.2231C149.812 23.3961 150.862 24.7951 152.295 25.538C154.672 26.7722 156.055 28.684 157.467 30.6407C160.712 35.1556 163.392 39.9593 165.697 44.9336C169.827 53.863 171.833 63.182 171.415 72.901C171.283 76.0268 170.873 79.1362 169.753 82.0739C166.464 82.5241 163.751 81.7673 161.35 80.4553C160.724 76.8054 160.177 73.3625 159.532 69.9297C158.737 65.6891 156.784 62.04 153.108 59.2517C148.737 55.937 143.8 53.9406 138.128 53.5503C137.284 53.4882 136.448 53.4259 135.667 53.3681C134.56 50.345 134.528 49.5396 135.38 46.3491C135.923 44.3038 135.567 43.7394 133.34 43.3129C131.786 43.0136 130.208 42.8266 128.666 42.4941C124.888 41.6829 122.084 39.6769 120.16 36.5711C118.444 33.7989 117.442 30.8114 116.837 27.6854C116.165 24.247 115.651 20.7964 115.588 17.2906C115.57 16.5109 115.434 15.7158 115.175 14.9774C114.861 14.0771 113.486 13.7321 112.746 14.3614C111.765 15.1959 110.868 16.0471 110.355 17.2848C109.391 19.5941 108.315 21.881 107.061 24.0628C101.812 33.198 94.2478 39.8838 83.287 42.9517C80.4486 43.7402 77.6773 44.4673 74.7054 43.654C74.0098 43.4621 73.2585 43.4427 72.5263 43.3767C65.3292 42.7319 58.6145 43.7225 52.9233 48.2375Z" fill="#F3C888"/>
<path fill-rule="evenodd" clip-rule="evenodd" d="M136.626 57.0003C136.845 56.914 137.067 56.7488 137.276 56.7545C144.503 56.9327 149.986 60.0705 154.231 65.2649C154.589 65.6982 154.806 66.2479 155.021 66.7714C156.511 70.4761 156.944 74.3754 157.641 78.5998C148.028 75.555 136.954 63.9786 136.626 57.0003Z" fill="#F3C888"/>
<path fill-rule="evenodd" clip-rule="evenodd" d="M51.8636 54.5631C54.9012 48.6793 64.8458 44.8735 72.2245 47.1052C71.5561 47.9418 70.9136 48.7316 70.2858 49.5406C68.4941 51.8265 66.1026 53.1894 63.1287 53.8909C59.5214 54.7392 55.8933 54.5457 51.8636 54.5631Z" fill="#F3C888"/>
<path fill-rule="evenodd" clip-rule="evenodd" d="M92.0353 247.603C97.9109 249.088 106.107 247.265 110.01 243.737C109.987 242.794 109.281 242.34 108.426 242.16C104.823 241.383 101.175 241.216 97.5298 241.816C95.9489 242.075 94.5309 242.761 93.3788 243.838C92.3001 244.84 91.6296 245.972 92.0353 247.603Z" fill="#F9BD70"/>
<path fill-rule="evenodd" clip-rule="evenodd" d="M24.8783 224.6C25.6649 223.765 25.7111 223.01 25.2989 222.257C23.2011 218.456 20.7848 214.856 17.3331 211.948C16.2758 211.054 15.1577 210.202 13.3498 210.344C13.1758 211.032 12.8331 211.674 12.8922 212.282C13.0056 213.379 13.2107 214.513 13.641 215.54C15.2372 219.313 20.1982 223.296 24.8783 224.6Z" fill="#F9BD70"/>
<path fill-rule="evenodd" clip-rule="evenodd" d="M119.188 145.036C119.099 144.896 119.003 144.756 118.907 144.616C118.938 144.686 118.934 144.778 118.992 144.821C119.071 144.884 119.183 144.912 119.282 144.955C119.275 144.955 119.188 145.036 119.188 145.036Z" fill="#FFEFF4"/>
<path fill-rule="evenodd" clip-rule="evenodd" d="M72.0007 149.6C75.2658 149.577 79.0035 145.039 78.5009 142.374C78.1056 140.31 77.269 138.503 75.6266 137.053C74.1283 135.729 72.7374 135.876 71.817 137.535C70.2683 140.337 68.7833 143.169 67.3549 146.026C66.7177 147.294 67.1083 148.198 68.5407 148.745C69.6339 149.145 70.843 149.319 72.0007 149.6Z" fill="#FFE7A4"/>
<path fill-rule="evenodd" clip-rule="evenodd" d="M52.3234 183.872C53.9159 185.638 55.7451 186.026 57.8974 185.111C58.5533 184.832 59.2 184.495 59.8037 184.126C63.9484 181.6 64.2738 177.398 60.5969 174.249C58.7188 172.637 56.2405 173.046 55.3143 175.255C54.1272 178.064 53.081 180.92 52.3234 183.872Z" fill="#FFE7A4"/>
<path fill-rule="evenodd" clip-rule="evenodd" d="M127.475 190.993C126.909 188.489 126.41 186.087 125.808 183.702C125.206 181.336 122.236 180.057 119.796 181.068C117.704 181.935 116.805 183.599 116.516 185.577C116.231 187.508 116.926 189.064 118.756 190.166C121.469 191.808 124.294 192.082 127.475 190.993Z" fill="#FFE7A4"/>
<path fill-rule="evenodd" clip-rule="evenodd" d="M82.0502 202.987C87.1731 203.895 92.0737 204.109 97.0459 203.855C96.4713 200.086 93.6709 197.306 90.1249 196.906C89.3291 196.816 88.432 196.972 87.6567 197.222C84.9195 198.106 83.6716 199.396 82.0502 202.987Z" fill="#FFE7A4"/>
<path fill-rule="evenodd" clip-rule="evenodd" d="M114.898 142.875C113.89 143.376 113.196 143.584 112.705 143.989C111.501 144.982 110.773 146.247 110.444 147.74C109.402 152.445 111.513 155.355 116.639 156.177C117.542 156.322 118.3 155.64 118.083 154.743C117.45 152.123 116.755 149.518 116.06 146.906C115.749 145.73 115.389 144.556 114.898 142.875Z" fill="#FFE7A4"/>
<path fill-rule="evenodd" clip-rule="evenodd" d="M89.2553 131.012C90.274 133.376 91.6115 134.851 94.0358 135.001C94.9135 135.055 95.9264 134.666 96.7295 134.244C97.6415 133.766 98.4326 133.043 98.5318 131.702C95.4625 131.581 92.5495 131.198 89.2553 131.012Z" fill="#FFE7A4"/>
<path fill-rule="evenodd" clip-rule="evenodd" d="M96.1826 168.36C95.8296 167.179 95.6408 165.933 95.1036 164.837C93.5381 161.66 89.6401 160.8 86.567 162.843C85.0237 163.868 83.9581 165.197 83.498 166.898C82.2398 171.578 86.8754 175.94 92.0727 174.884C92.9412 174.71 93.8123 174.076 94.4266 173.451C95.8155 172.038 96.1056 170.257 96.1826 168.36Z" fill="#FFE7A4"/>
<path fill-rule="evenodd" clip-rule="evenodd" d="M107.177 98.3827C105.045 97.3628 103.065 97.0326 100.974 96.8637C97.5786 96.5898 94.2147 96.0526 90.8286 95.6539C90.1302 95.567 89.4227 95.5985 88.4697 95.5731C88.4769 96.2744 88.4012 96.8148 88.5118 97.3223C89.1267 100.186 89.7137 103.05 90.4458 105.89C91.119 108.476 92.988 109.859 95.8891 110.117C101.831 110.656 104.111 108.766 105.965 104.727C106.873 102.774 107.443 100.695 107.177 98.3827Z" fill="#F2F3F5"/>
<path fill-rule="evenodd" clip-rule="evenodd" d="M49.2019 80.6492C48.9898 75.3455 52.775 70.4321 58.6657 70.3819C64.2574 70.3292 68.8452 75.0591 70.0745 79.9073C70.9824 83.4948 69.9741 87.3006 67.451 89.7173C64.4066 93.6931 58.3548 93.7096 54.4842 90.5806C51.1944 88.4212 49.3568 84.3484 49.2019 80.6492Z" fill="#FEDAC6"/>
<path fill-rule="evenodd" clip-rule="evenodd" d="M131.002 91.7009C133.971 86.0163 140.747 84.9842 146.399 87.6701C151.683 90.1789 154.193 95.7754 153.303 101.125C152.506 105.874 147.94 108.467 143.331 109.115C139.91 109.596 135.844 108.165 133.571 105.728C133.172 105.302 132.82 104.849 132.517 104.381C129.692 100.815 128.956 95.6154 131.002 91.7009Z" fill="#FEDAC6"/>
<path fill-rule="evenodd" clip-rule="evenodd" d="M119.189 145.038C119.719 145.616 120.351 146.132 120.759 146.767C123.554 151.14 126.68 155.298 130.145 159.235C133.524 163.083 136.915 166.924 140.395 170.703C142.197 172.659 144.194 174.477 146.284 176.528C145.497 177.854 144.675 179.207 143.882 180.586C142.739 182.574 141.539 184.537 140.53 186.586C139.456 188.755 139.628 190.978 140.749 193.109C141.877 195.246 142.66 195.54 145.433 195.036C145.654 194.995 145.899 195.039 146.226 195.047C146.627 195.531 147.018 196.101 147.517 196.582C149.099 198.093 150.895 198.325 152.794 197.176C153.792 196.577 154.649 195.767 155.66 194.977C156.501 195.505 157.234 196.115 158.096 196.478C159.072 196.896 160.144 197.298 161.196 197.365C163.766 197.517 165.313 196.047 165.266 193.668C165.249 192.882 165.162 192.092 164.999 191.324C164.851 190.575 164.564 189.844 164.292 188.935C165.47 188.52 166.301 189.147 167.163 189.32C168.627 189.615 170.044 189.775 171.481 189.22C172.624 188.773 173.191 187.999 173.215 186.87C173.251 185.341 172.628 184.006 171.765 182.758C171.123 181.823 170.393 180.944 169.63 179.935C170.365 179.365 171.077 178.926 171.63 178.35C172.598 177.345 173.635 176.345 174.325 175.179C176.044 172.293 174.497 169.397 170.965 168.833C169.538 168.601 168.038 168.614 166.582 168.718C160.527 169.168 154.779 170.537 149.842 173.924C148.085 173.763 146.847 172.882 145.775 171.785C144.297 170.284 142.779 168.809 141.41 167.231C136.828 161.964 132.152 156.758 127.834 151.31C125.251 148.057 123.134 144.473 121.046 140.914C119.032 137.477 117.319 133.892 115.355 130.151C116.545 129.841 117.68 129.545 118.746 129.265C119.747 130.318 119.972 131.431 120.251 132.51C120.811 134.7 121.337 136.898 121.911 139.087C122.468 141.185 123.285 143.202 124.858 144.832C127.337 147.394 130.603 148.616 134.248 148.881C136.415 149.035 138.335 148.213 139.811 146.725C140.626 145.896 141.275 144.929 141.953 143.994C142.559 143.159 143.108 142.288 143.817 141.233C144.523 141.7 145.113 142.027 145.616 142.442C146.435 143.115 147.148 143.903 147.993 144.542C150.402 146.385 153.028 146.2 155.102 144.035C156.496 142.577 157.379 140.841 158 138.996C158.36 137.928 158.636 136.836 159.028 135.504C159.627 135.719 160.167 135.851 160.649 136.09C161.933 136.733 163.158 137.49 164.461 138.093C167.109 139.311 169.87 139.378 172.658 138.539C175.699 137.618 177.269 135.675 177.276 132.737C177.286 129.858 176.324 127.171 174.814 124.699C173.26 122.151 171.502 119.708 169.839 117.216C168.826 115.704 167.67 114.257 166.999 112.418C168.735 111.701 170.441 111.602 172.067 111.256C175.712 110.485 178.998 109.064 181.767 106.724C185.807 103.31 187.9 99.1842 186.951 94.0441C186.641 92.383 186.331 90.7022 185.746 89.1098C183.78 83.7433 180.469 81.565 174.105 81.4089C174.059 80.8007 173.866 80.1452 173.988 79.5377C176.422 66.9018 173.878 54.9003 168.611 43.257C166.4 38.3647 163.664 33.7204 160.58 29.2456C158.338 25.9871 155.61 23.1129 152.465 20.5878C147.476 16.5867 142.282 12.8617 136.276 10.2013C135.073 9.66666 133.838 9.19217 132.597 8.73756C131.694 8.40217 130.708 8.23365 129.837 7.83811C125.64 5.92706 121.065 5.15716 116.602 4.0751C110.118 2.49378 103.549 2.6268 96.9705 3.71098C92.5042 4.45189 88.1543 5.49687 83.9439 7.07463C79.1447 8.87639 74.7861 11.2659 70.861 14.4204C62.7415 20.9421 55.9292 28.3555 51.4931 37.4949C49.6377 41.3174 48.4433 45.333 47.2067 49.337C47.0162 49.9601 46.7627 50.5722 46.4621 51.3959C45.7269 51.0808 45.2165 50.83 44.6874 50.6323C40.517 49.0416 36.7737 49.7898 33.5135 52.5406C29.9779 55.5305 28.3058 59.2417 28.526 63.7058C28.7426 68.0782 29.9887 72.1325 32.493 75.8473C35.3968 80.171 38.7936 84.1364 42.7509 87.6951C43.5222 88.3892 44.2934 89.0833 45.2592 89.9476C44.6445 90.3889 44.214 90.7451 43.732 91.0309C38.8877 93.962 34.7176 97.5907 30.8731 101.542C28.9639 103.498 27.6921 105.753 27.0883 108.377C26.343 111.636 28.0861 115.43 32.6811 116.691C33.2641 116.847 33.8784 116.918 34.4737 117.034C35.0482 117.152 35.6233 117.282 36.3736 117.453C35.9175 118.557 35.481 119.458 35.164 120.393C33.7025 124.681 35.9881 127.793 40.8392 128.16C41.6894 128.222 42.5389 128.264 43.514 128.322C43.942 129.12 44.3428 129.932 44.8183 130.702C46.0972 132.794 48.072 134.043 50.6105 134.445C53.3167 134.868 55.949 134.664 58.4973 133.571C63.0881 131.599 66.6975 128.718 68.8604 124.419C69.0598 124.019 69.3088 123.643 69.5814 123.161C70.0835 123.379 70.548 123.527 70.9399 123.769C71.7311 124.266 72.4897 124.816 73.4329 125.465C72.9554 126.209 72.6082 126.91 72.1039 127.505C66.1868 134.539 60.3201 141.617 54.2742 148.558C49.9621 153.503 45.0657 157.911 38.883 160.909C37.2675 161.694 35.5856 162.383 33.8947 163.019C32.416 163.576 31.7226 163.266 30.967 161.923C30.8548 161.723 30.7698 161.51 30.6851 161.303C29.6123 158.456 27.3719 156.646 24.5207 155.376C21.8744 154.191 19.1845 153.132 16.1835 152.982C15.8145 152.962 15.4566 152.876 15.095 152.869C10.7507 152.838 8.26597 155.693 9.30358 159.571C9.5327 160.435 9.93454 161.273 10.3831 162.064C10.7645 162.739 11.3301 163.329 12.0486 164.268C11.1751 165.013 10.2092 165.709 9.41542 166.537C8.6152 167.379 7.84533 168.284 7.3012 169.274C6.40828 170.925 6.8735 172.305 8.52201 173.388C9.10005 173.768 9.78411 174.019 10.6341 174.422C10.2773 175.057 9.91713 175.608 9.64847 176.187C8.11218 179.474 9.80615 181.867 13.6255 181.804C14.3547 181.792 15.0732 181.688 15.7378 181.625C15.9885 181.813 16.2358 181.916 16.3334 182.096C17.796 184.785 19.079 185.592 22.0448 185.036C23.8449 184.697 25.3087 184.809 26.9059 185.651C27.8073 186.124 29.014 186.239 30.0989 186.26C32.7834 186.316 34.5698 185.112 35.1894 182.71C35.9231 179.858 36.3711 176.984 35.6479 174.019C35.0334 171.51 34.7084 168.944 34.2407 166.286C35.4626 165.738 36.5332 165.228 37.627 164.776C43.0472 162.52 47.7132 159.3 51.8798 155.409C55.7585 151.791 59.0637 147.733 62.4621 143.745C63.9553 141.988 65.441 140.217 66.9671 138.413C67.6647 139.175 67.0726 139.662 66.8324 140.083C61.5468 149.528 58.0173 159.619 54.0152 169.536C51.6382 175.43 49.5639 181.424 47.5171 187.41C46.6893 189.82 46.4953 192.266 46.9908 194.753C47.5669 197.69 49.3882 199.619 52.4874 200.487C53.7593 200.842 55.069 201.097 56.6684 201.474C56.0597 202.413 55.6396 203.202 55.0698 203.897C52.784 206.686 50.4768 209.462 48.1264 212.2C44.4415 216.494 40.1032 220.089 34.6653 222.425C33.0189 223.132 31.3962 223.91 29.4229 223.914C27.7559 219.068 24.6696 215.046 21.2516 211.246C20.1826 210.057 18.6753 209.205 17.3302 208.236C16.9512 207.968 16.4776 207.768 16.0141 207.647C12.5955 206.784 10.0505 207.437 9.68446 211.489C9.4958 213.548 9.97813 215.531 11.0379 217.356C13.6051 221.777 17.4303 224.986 22.3433 227.075C23.9195 227.741 25.5153 227.678 27.3062 227.458C35.4931 226.441 41.9276 222.615 47.475 217.285C49.4156 215.42 51.1685 213.378 52.9293 211.362C54.61 209.428 56.212 207.437 57.7999 205.44C58.6532 204.361 59.4069 203.226 60.2359 202.063C67.2572 203.35 74.3056 204.623 81.3487 205.935C88.3146 207.231 95.4318 206.574 102.596 207.082C103.952 217.702 104.43 228.282 108.159 238.294C106.628 239.102 105.414 238.627 104.23 238.57C101.661 238.438 99.1147 238.37 96.5816 238.971C94.2617 239.518 92.2734 240.539 90.657 242.169C89.1808 243.657 88.5491 245.411 88.7416 247.443C88.898 249.096 89.8102 250.185 91.4765 250.671C92.3976 250.94 93.3787 251.148 94.3459 251.18C100.519 251.428 106.176 249.871 111.385 246.849C113.09 245.864 114.399 244.552 114.824 242.649C115.06 241.605 114.839 240.773 113.728 240.445C112.216 239.993 111.657 239.043 111.26 237.811C109.639 232.727 108.273 227.595 107.618 222.327C106.993 217.293 106.478 212.256 105.896 207.064C106.773 206.928 107.592 206.748 108.417 206.687C113.045 206.333 117.681 206.032 122.301 205.66C124.996 205.447 127.629 204.921 130.05 203.767C132.662 202.521 133.247 201.51 132.612 198.851C130.372 189.403 128.131 179.941 125.733 170.524C123.836 163.077 121.699 155.677 119.721 148.252C119.434 147.18 119.417 146.047 119.275 144.937C119.176 144.895 119.064 144.859 118.985 144.803C118.928 144.759 118.931 144.667 118.9 144.596C119.004 144.756 119.1 144.897 119.189 145.038ZM135.66 53.355C134.552 50.3319 134.52 49.5265 135.372 46.336C135.916 44.2908 135.56 43.7263 133.333 43.2998C131.778 43.0005 130.201 42.8135 128.658 42.481C124.881 41.6698 122.076 39.6638 120.152 36.558C118.436 33.7858 117.434 30.7984 116.83 27.6723C116.157 24.2339 115.644 20.7833 115.58 17.2776C115.563 16.4979 115.427 15.7027 115.168 14.9643C114.854 14.064 113.478 13.719 112.739 14.3483C111.758 15.1828 110.861 16.034 110.347 17.2717C109.384 19.581 108.308 21.8679 107.054 24.0497C101.804 33.1849 94.2404 39.8707 83.2796 42.9386C80.4413 43.7271 77.67 44.4542 74.6981 43.6409C74.0025 43.4491 73.2512 43.4296 72.5189 43.3636C65.3358 42.7184 58.6213 43.7155 52.9228 48.2242C52.4312 48.6153 51.8241 48.8989 50.7863 49.5322C51.8273 45.5023 53.0185 42.1032 54.597 38.8281C58.4988 30.7501 64.4316 24.1086 71.4346 18.1639C76.0987 14.2031 81.3604 11.2835 87.3052 9.28397C92.0569 7.68715 96.9551 6.79987 101.931 6.28363C106.581 5.79852 111.231 5.99535 115.758 7.1276C120.938 8.42044 126.118 9.70674 131.137 11.497C137.848 13.89 143.839 17.2263 148.674 22.2098C149.811 23.3827 150.861 24.7817 152.294 25.5246C154.672 26.7589 156.055 28.6707 157.467 30.6274C160.712 35.1423 163.392 39.946 165.696 44.9203C169.827 53.8497 171.832 63.1687 171.415 72.8877C171.283 76.0135 170.872 79.1229 169.753 82.0605C166.463 82.5108 163.751 81.754 161.349 80.4419C160.724 76.792 160.176 73.3492 159.532 69.9164C158.737 65.6758 156.784 62.0267 153.108 59.2384C148.736 55.9237 143.799 53.9272 138.127 53.5369C137.284 53.4814 136.441 53.4128 135.66 53.355ZM51.1604 187.288C51.8592 187.559 52.2898 187.727 52.7207 187.902C55.2718 188.966 57.7599 188.63 60.0947 187.413C61.3611 186.759 62.5003 185.879 63.6264 185.02C66.148 183.088 66.8871 180.545 66.0998 177.713C65.0845 174.044 63.1708 171.024 58.6512 170.258C58.2246 170.188 57.8396 169.946 57.3452 169.747C58.6574 166.416 59.8642 163.232 61.1765 160.078C62.4765 156.964 63.3667 153.68 65.3471 150.725C66.3996 151.153 67.2508 151.589 68.1578 151.852C70.0349 152.396 71.9162 152.697 73.9104 152.174C79.2745 150.772 82.8507 145.151 81.306 140.236C80.5095 137.693 78.9985 135.53 76.6012 133.969C76.0231 133.589 75.412 133.25 74.5789 132.748C75.7424 131.088 76.0337 129.163 77.323 127.518C80.0346 128.425 82.6542 129.29 85.3728 130.198C85.6053 130.799 85.8733 131.419 86.093 132.048C86.7595 133.945 88.0958 135.387 89.749 136.587C92.2539 138.407 95.1641 138.547 97.9616 137.085C99.3911 136.34 100.403 135.229 101.306 134.017C101.92 133.195 102.497 132.348 103.102 131.488C105.981 131.367 108.731 130.791 111.658 131.016C113.071 133.851 113.819 136.73 114.017 139.608C112.642 140.495 111.333 141.125 110.306 142.033C107.641 144.363 106.928 147.385 106.962 150.669C106.994 153.395 108.298 155.402 110.617 156.933C112.437 158.135 114.507 158.796 116.658 159.258C117.597 159.454 118.53 159.657 119.378 159.844C121.428 165.588 123.821 175.037 123.889 177.769C123.306 177.79 122.711 177.863 122.133 177.825C118.815 177.574 116.535 179.11 114.781 181.474C111.999 185.217 113.088 190.221 117.143 192.734C119.694 194.316 122.519 194.774 125.523 194.642C126.459 194.602 127.464 194.193 128.423 195.045C128.749 196.784 129.695 198.541 129.43 200.425C128.396 201.511 127.075 201.839 125.787 202.121C124.244 202.457 122.673 202.781 121.099 202.876C115.006 203.241 108.902 203.529 102.798 203.809C102.112 203.84 101.408 203.629 100.724 203.541C100.424 202.64 100.24 201.873 99.9193 201.15C98.9663 199.04 97.5804 197.226 95.5246 195.863C91.6986 193.329 87.7871 193.171 83.9824 195.686C82.6216 196.586 81.4824 197.813 80.3974 199.005C79.4719 200.015 78.7616 201.194 77.8458 202.446C73.6924 201.628 69.5313 200.791 65.3646 199.987C61.786 199.294 58.1822 198.667 54.6095 197.947C51.2329 197.266 50.1054 196.007 49.9021 192.834C49.7805 191.009 50.0439 189.255 51.1604 187.288ZM109.5 73.7575C109.586 74.3315 109.725 74.6741 109.668 74.9842C109.101 78.3745 109.595 81.6946 110.154 85.0518C112.166 97.1507 126.04 107.835 143.372 101.966C151.118 98.4538 156.964 93.2777 160.158 85.7623C160.406 85.1765 160.773 84.6325 161.046 84.1377C163.627 84.7549 165.971 85.3149 168.405 85.898C168.314 86.4061 168.305 86.8588 168.147 87.2644C164.68 96.127 159.216 103.716 151.314 109.777C144.694 114.863 137.414 118.929 129.581 122.201C118.352 126.898 106.641 129.108 94.3063 128.218C83.3786 127.422 74.1284 123.394 66.5257 116.082C61.3941 111.135 57.777 105.309 54.4571 99.2689C51.7597 94.3741 50.3705 89.1774 49.9031 83.745C49.8554 83.2484 49.5864 82.6021 50.4907 82.4522C51.6227 83.6516 52.6265 84.9474 53.8774 85.9918C61.1528 92.0695 73.6716 93.2088 81.275 87.6822C82.3285 86.9172 83.4253 86.1967 84.5228 85.4892C86.5753 84.1645 88.0893 82.4064 89.168 80.3619C90.1307 78.5445 90.952 76.6665 91.7875 74.7945C92.3355 73.5556 92.8059 72.2867 93.3434 70.9563C99.348 69.5842 104.342 72.136 109.5 73.7575ZM49.5053 57.8129C52.8675 57.7863 55.9152 57.8887 58.9519 57.7162C64.783 57.3927 69.9274 55.71 73.4223 51.0101C74.1081 50.0876 75.0153 49.3147 75.8152 48.4669C76.6283 47.599 77.6554 47.3923 78.7948 47.7325C81.594 48.5715 84.2513 49.6844 86.4717 51.5142C88.2389 52.9601 89.4828 54.6998 90.1036 56.8417C91.0626 60.1455 91.2995 63.4615 90.6702 66.8409C90.07 70.075 88.9283 73.1511 87.5967 76.1683C86.3412 79.0058 84.744 81.639 81.7089 83.2409C81.2937 83.4588 80.9391 83.7991 80.5756 84.0939C77.1884 86.7967 73.1867 87.8622 68.7716 87.9718C66.2381 88.0414 63.8868 87.4554 61.7718 86.3497C54.6179 82.615 49.2316 77.5526 47.5511 69.7631C46.6472 65.5787 46.3954 61.5419 49.5053 57.8129ZM132.446 57.2647C132.806 58.0979 133.117 58.9328 133.518 59.7318C134.432 61.5683 135.265 63.4536 136.342 65.2057C140.022 71.2069 145.139 75.9575 151.529 79.5289C153.391 80.5715 155.279 81.5672 157.069 82.5401C156.904 85.1884 156.527 86.3492 154.861 88.6635C152.472 91.9803 149.484 94.7804 145.927 97.0565C143.366 98.6941 140.55 99.6917 137.49 100.147C124.351 102.092 115.297 93.5915 113.686 85.2815C113.301 83.2952 113.018 81.2724 112.875 79.2645C112.126 69.2127 121.159 59.9836 128.757 57.7947C129.917 57.4522 131.041 57.0585 132.446 57.2647ZM131.247 46.383C131.353 49.0545 131.446 51.3659 131.541 53.7493C121.137 55.7813 114.933 62.0913 110.678 70.5292C107.873 69.7232 105.245 68.8257 102.538 68.2194C99.8531 67.619 97.0895 67.3229 94.2433 66.8724C94.6029 63.8763 94.5008 60.9751 93.9471 58.0768C93.0948 53.6218 90.7247 50.1317 86.6153 47.634C85.9529 47.2311 85.3501 46.754 84.3925 46.0927C85.9943 45.4855 87.2127 45.0229 88.4308 44.5538C94.6163 42.1459 99.947 38.6927 104.107 33.7661C106.668 30.7383 109.009 27.5937 110.859 24.1452C111.137 23.6305 111.143 22.732 112.432 22.8242C112.625 23.8403 112.856 24.9141 113.038 25.9961C113.752 30.1216 114.774 34.1378 117.008 37.8491C119.464 41.9262 123.097 44.4998 127.965 45.6462C129.031 45.8906 130.09 46.1222 131.247 46.383ZM154.963 111.019C157.008 111.413 158.561 111.673 160.089 112.006C161.639 112.351 163.199 112.801 164.094 114.134C166.738 118.047 169.416 121.952 171.877 125.964C172.821 127.497 173.469 129.271 173.809 131.01C174.533 134.689 172.875 136.315 168.786 136.065C167.602 135.996 166.385 135.632 165.303 135.165C163.988 134.595 162.795 133.785 161.557 133.061C160.731 132.579 159.972 131.996 159.121 131.567C157.404 130.696 156.271 131.195 155.957 132.917C155.798 133.808 155.821 134.732 155.571 135.593C155.094 137.216 154.653 138.878 153.865 140.374C151.993 143.961 150.613 142.987 148.748 141.184C147.823 140.292 146.89 139.374 145.825 138.638C144.353 137.615 142.804 137.813 141.599 139.121C140.893 139.887 140.331 140.772 139.732 141.62C139.207 142.379 138.759 143.182 138.212 143.929C137.065 145.477 135.432 146.158 133.451 145.815C130.051 145.233 127.203 143.864 125.839 140.693C125.433 139.756 125.102 138.784 124.834 137.804C124.132 135.186 123.47 132.547 122.83 129.914C122.705 129.401 122.774 128.854 122.745 128.134C134.627 124.128 145.572 118.766 154.963 111.019ZM47.7696 92.6C48.6724 94.673 49.3836 96.4708 50.2243 98.205C53.8882 105.721 58.2716 112.812 64.57 118.787C66.7659 120.873 66.8467 122.025 65.2489 124.468C63.016 127.884 59.7596 130.208 55.6732 131.414C51.4699 132.651 48.5342 131.351 46.9526 127.597C46.2008 125.827 45.0126 125.135 43.0522 125.289C42.4496 125.336 41.831 125.332 41.2246 125.288C38.5277 125.094 37.4609 123.788 38.1947 121.46C38.4665 120.611 38.9486 119.808 39.3962 119.012C39.8439 118.216 40.4329 117.48 40.8384 116.672C41.4304 115.491 40.7025 114.317 39.3294 114.214C38.4789 114.146 37.6219 114.261 36.7719 114.206C35.6852 114.139 34.5649 114.1 33.5253 113.822C31.1722 113.19 30.0937 111.766 30.283 109.55C30.3687 108.563 30.5979 107.519 31.0701 106.643C31.7172 105.447 32.4816 104.233 33.4938 103.306C36.5171 100.537 39.6483 97.8629 42.8302 95.2394C44.1751 94.1167 45.7157 93.1969 47.7696 92.6ZM9.80584 171.087C11.6285 168.531 12.9529 166.55 15.8737 166.257C16.6626 166.177 17.3255 165.898 17.5676 165.175C17.865 164.272 17.2514 163.697 16.5301 163.211C15.7376 162.682 14.9125 162.206 14.1465 161.643C13.1446 160.918 12.6052 159.94 12.4262 158.766C12.1277 156.862 12.8487 155.951 14.9616 155.962C19.173 155.971 22.7985 157.489 25.9877 159.914C26.5321 160.321 27.1345 160.962 27.2134 161.543C27.4874 163.704 28.9856 165.199 30.3265 166.758C30.8876 167.407 31.253 168.03 31.3962 168.832C31.8022 171.165 32.2843 173.489 32.6489 175.83C32.9849 177.975 32.6387 180.092 31.9918 182.161C31.8682 182.545 31.5244 182.984 31.1432 183.181C29.5092 184.025 27.3129 183.145 26.8968 181.429C26.6728 180.519 26.6135 179.557 25.4244 179.363C23.9834 179.125 23.557 180.104 23.2301 181.138C22.8844 182.226 21.9382 182.371 20.9081 182.328C20.0661 182.299 19.492 181.67 19.7212 180.973C20.0136 180.117 20.5165 179.313 20.7112 178.447C20.8175 177.977 20.6288 177.256 20.269 176.948C19.9165 176.645 19.1271 176.542 18.6322 176.678C17.8279 176.896 17.1253 177.399 16.361 177.748C15.4944 178.145 14.6139 178.544 13.702 178.851C13.4345 178.939 12.8453 178.803 12.7545 178.616C12.5807 178.268 12.4819 177.707 12.6719 177.419C13.0385 176.855 13.5889 176.37 14.1344 175.938C14.6867 175.499 15.355 175.18 15.9291 174.766C16.9758 174.008 17.334 173.235 17.005 172.479C16.6291 171.594 15.777 171.487 14.8993 171.432C13.4636 171.325 12.0214 171.232 9.80584 171.087ZM158.533 108.356C158.925 107.739 159.058 107.413 159.292 107.175C164.808 101.598 168.656 95.1148 171.48 88.0715C171.809 87.2468 172.362 86.4799 172.952 85.7771C173.297 85.365 173.88 85.0035 174.424 84.886C176.435 84.4348 178.39 84.6479 179.825 86.1382C180.782 87.1274 181.675 88.2697 182.217 89.4833C182.858 90.9229 183.068 92.5154 183.497 94.0347C184.551 97.8071 183.077 100.902 180.357 103.6C178.412 105.531 175.991 106.856 173.272 107.666C170.346 108.543 167.328 108.997 164.264 109.02C162.458 109.037 160.614 109.129 158.533 108.356ZM143.931 191.882C143.696 191.549 143.328 191.221 143.215 190.832C142.893 189.722 142.925 188.606 143.522 187.549C144.527 185.75 145.525 183.951 146.537 182.151C147.958 179.623 149.847 177.517 152.458 175.897C157.753 172.616 163.616 171.518 169.853 171.613C169.971 171.615 170.09 171.644 170.216 171.665C171.511 171.902 172.086 172.891 171.439 173.911C169.936 176.298 167.801 177.829 164.677 177.9C163.948 177.919 163.203 177.879 162.485 177.977C161.724 178.082 161.108 178.478 161.014 179.261C160.921 180.051 161.406 180.559 162.178 180.748C162.873 180.92 163.623 180.9 164.33 181.039C165.031 181.172 165.819 181.256 166.376 181.617C168.081 182.737 169.335 184.201 169.932 186.435C168.872 186.361 168.014 186.45 167.275 186.214C166.015 185.813 164.843 185.172 163.608 184.691C162.605 184.3 161.588 183.89 160.53 183.658C159.422 183.416 158.336 184.588 158.717 185.585C159.042 186.425 159.601 187.18 159.981 188.005C160.689 189.548 161.39 191.103 162.003 192.681C162.197 193.193 162.189 193.875 161.476 194.116C161.065 194.255 160.406 194.298 160.106 194.086C159.255 193.486 158.463 192.793 157.786 192.023C157.342 191.515 157.235 190.751 156.797 190.235C156.462 189.841 155.834 189.424 155.341 189.434C154.862 189.445 154.219 189.894 153.965 190.309C153.437 191.187 153.193 192.205 152.679 193.089C152.159 193.986 151.463 194.803 149.958 194.548C149.726 194.13 149.312 193.666 149.208 193.152C149.008 192.162 148.968 191.147 148.906 190.133C148.834 189.028 149.083 187.78 147.503 187.363C146.569 187.114 146.011 187.763 145.525 189.675C145.31 190.568 145.193 191.47 143.931 191.882ZM46.5395 85.647C45.959 85.7265 45.8156 85.7905 45.7444 85.7472C45.4317 85.5746 45.1054 85.409 44.8457 85.169C40.9221 81.5829 37.5392 77.617 34.764 73.2101C32.8722 70.2146 32.1016 66.9305 31.9099 63.5276C31.7156 60.0592 33.1142 57.1511 35.9041 54.8037C37.43 53.5173 39.2274 52.936 41.2748 53.0474C43.7607 53.1762 45.0387 54.377 45.0607 56.6647C45.0703 57.4249 44.8794 58.212 44.6448 58.9481C43.0686 63.8427 43.0125 68.6968 44.9015 73.5349C45.1881 74.2723 45.4827 75.0356 45.5694 75.8129C45.9352 79.0523 46.2181 82.3012 46.5395 85.647ZM157.642 78.6054C148.027 75.5541 136.953 63.9712 136.626 56.9995C136.845 56.9131 137.067 56.7479 137.276 56.7536C144.503 56.9318 149.986 60.0696 154.231 65.264C154.589 65.6973 154.806 66.247 155.021 66.7705C156.511 70.4818 156.937 74.3747 157.642 78.6054ZM72.0007 149.599C70.8429 149.318 69.6341 149.151 68.5335 148.737C67.1013 148.198 66.7105 147.287 67.3477 146.019C68.7833 143.168 70.2611 140.33 71.8098 137.528C72.7302 135.869 74.121 135.722 75.6194 137.046C77.2617 138.496 78.0986 140.309 78.4936 142.367C79.0104 145.037 75.2658 149.576 72.0007 149.599ZM51.863 54.5628C54.9006 48.6791 64.8452 44.8732 72.2238 47.105C71.5554 47.9416 70.913 48.7314 70.2852 49.5403C68.4935 51.8263 66.1019 53.1891 63.1281 53.8906C59.5208 54.7389 55.8927 54.5454 51.863 54.5628ZM52.3232 183.871C53.0807 180.919 54.1269 178.063 55.3071 175.254C56.2333 173.045 58.7116 172.636 60.5898 174.249C64.2666 177.398 63.9412 181.599 59.7965 184.125C59.1928 184.494 58.5531 184.831 57.8902 185.11C55.7448 186.025 53.9157 185.637 52.3232 183.871ZM127.475 190.993C124.301 192.075 121.469 191.801 118.763 190.172C116.933 189.069 116.239 187.514 116.523 185.582C116.812 183.605 117.705 181.941 119.803 181.074C122.243 180.057 125.213 181.336 125.815 183.708C126.411 186.087 126.903 188.495 127.475 190.993ZM92.0347 247.602C91.629 245.971 92.2995 244.839 93.3782 243.837C94.5303 242.761 95.948 242.068 97.5292 241.816C101.174 241.215 104.829 241.381 108.425 242.16C109.28 242.346 109.986 242.793 110.01 243.737C106.107 247.264 97.9103 249.087 92.0347 247.602ZM24.8779 224.599C20.1978 223.295 15.2368 219.313 13.6406 215.54C13.2034 214.513 13.0052 213.379 12.8918 212.281C12.8327 211.673 13.1687 211.039 13.3494 210.344C15.1573 210.201 16.2754 211.054 17.3327 211.948C20.7844 214.855 23.2007 218.455 25.2984 222.257C25.7107 223.009 25.6645 223.765 24.8779 224.599ZM82.0507 202.986C83.6723 199.401 84.9199 198.105 87.657 197.215C88.4322 196.965 89.3223 196.809 90.1251 196.899C93.6711 197.298 96.4715 200.078 97.0461 203.848C92.0672 204.109 87.1733 203.888 82.0507 202.986ZM114.898 142.875C115.389 144.556 115.749 145.73 116.06 146.912C116.756 149.524 117.45 152.129 118.083 154.749C118.3 155.646 117.542 156.322 116.64 156.183C111.513 155.361 109.402 152.445 110.444 147.746C110.774 146.253 111.502 144.994 112.706 143.995C113.197 143.591 113.89 143.376 114.898 142.875ZM89.255 131.012C92.5423 131.198 95.4553 131.58 98.5315 131.701C98.4326 133.049 97.6343 133.766 96.7292 134.243C95.9261 134.665 94.9202 135.055 94.0355 135C91.6182 134.85 90.2807 133.375 89.255 131.012Z" fill="#664E2B"/>
<path fill-rule="evenodd" clip-rule="evenodd" d="M80.0078 169.624C80.128 171.239 80.8101 173.005 82.3065 174.454C85.0101 177.073 88.3344 178.182 92.2268 177.862C94.7826 177.654 96.3634 176.175 97.7211 174.331C99.8496 171.43 99.9131 164.503 96.2117 161.086C93.477 158.56 89.5663 157.904 86.146 159.605C82.1258 161.596 79.8176 165.218 80.0078 169.624ZM96.1829 168.359C96.1128 170.256 95.8224 172.03 94.4266 173.443C93.8054 174.069 92.9343 174.702 92.0727 174.877C86.8826 175.939 82.2398 171.571 83.498 166.891C83.9581 165.19 85.0237 163.86 86.5671 162.836C89.6335 160.8 93.5315 161.659 95.1036 164.83C95.6411 165.932 95.8302 167.185 96.1829 168.359Z" fill="#664E2B"/>
<path fill-rule="evenodd" clip-rule="evenodd" d="M89.3755 92.3285C88.5151 92.3588 88.3902 92.3632 88.2722 92.3674C84.5587 92.472 84.0616 93.073 84.7996 96.4108C85.46 99.371 86.038 102.354 86.7194 105.32C88.3096 112.24 93.1628 113.702 98.9296 113.335C102.943 113.082 105.815 111.394 107.866 108.299C109.832 105.338 110.549 102.067 110.775 98.6693C110.853 97.5125 110.437 96.4715 109.813 95.4837C109.205 94.5281 108.392 94.1765 107.145 94.0827C102.782 93.7578 98.4325 93.2618 94.0856 92.8183C92.2715 92.633 90.4641 92.441 89.3755 92.3285ZM107.178 98.383C107.437 100.695 106.874 102.774 105.965 104.734C104.104 108.766 101.831 110.656 95.8896 110.124C92.9885 109.866 91.1195 108.483 90.4462 105.897C89.7142 103.057 89.1202 100.193 88.5123 97.3291C88.4017 96.8215 88.4843 96.281 88.4701 95.5799C89.4232 95.6053 90.1307 95.5738 90.8291 95.6607C94.2152 96.0594 97.5791 96.5966 100.974 96.8704C103.065 97.0328 105.045 97.3631 107.178 98.383Z" fill="#664E2B"/>
<path fill-rule="evenodd" clip-rule="evenodd" d="M67.5497 66.462C67.7342 69.1636 69.5446 70.8177 72.014 70.8815C74.6576 70.9589 76.749 69.3902 77.0914 67.0045C77.1834 66.3521 77.1348 65.6588 77.0254 65.0069C76.6575 62.7577 75.681 61.625 73.919 61.3526C71.7028 61.0176 69.8458 61.4961 68.5577 63.3447C67.8088 64.4267 67.4727 65.5795 67.5497 66.462Z" fill="#664E2B"/>
<path fill-rule="evenodd" clip-rule="evenodd" d="M124.44 78.2534C124.561 81.2785 126.851 83.2895 130.065 83.2025C133.271 83.1157 135.71 81.0234 135.56 78.4846C135.391 75.6579 132.478 73.0066 129.624 73.0678C127.035 73.1328 124.342 75.8177 124.44 78.2534Z" fill="#664E2B"/>
</svg>
